<svg width="800" height="600" viewBox="0 0 800 600" fill="none" xmlns="http://www.w3.org/2000/svg">
  <!-- Background Elements -->
  <rect x="100" y="100" width="600" height="400" rx="20" fill="#F7F9FC" />
  
  <!-- Decorative Elements -->
  <circle cx="200" cy="200" r="50" fill="#0055FF" opacity="0.1" />
  <circle cx="600" cy="400" r="70" fill="#00C2FF" opacity="0.1" />
  <circle cx="400" cy="150" r="30" fill="#FF5500" opacity="0.1" />
  
  <!-- Website Builder Illustration -->
  <rect x="250" y="200" width="300" height="200" rx="10" fill="white" stroke="#0055FF" stroke-width="2" />
  <rect x="270" y="220" width="260" height="30" rx="5" fill="#EDF1F7" />
  <rect x="270" y="260" width="120" height="80" rx="5" fill="#0055FF" opacity="0.7" />
  <rect x="400" y="260" width="130" height="80" rx="5" fill="#00C2FF" opacity="0.5" />
  <rect x="270" y="350" width="260" height="30" rx="5" fill="#EDF1F7" />
  
  <!-- AI Elements -->
  <circle cx="150" cy="350" r="40" fill="#0055FF" opacity="0.2" />
  <path d="M130 350 L170 350 M150 330 L150 370" stroke="#0055FF" stroke-width="4" />
  
  <circle cx="650" cy="250" r="40" fill="#0055FF" opacity="0.2" />
  <path d="M630 250 L670 250 M650 230 L650 270" stroke="#0055FF" stroke-width="4" />
  
  <!-- Connecting Lines -->
  <path d="M190 350 C220 350, 230 330, 250 330" stroke="#0055FF" stroke-width="2" stroke-dasharray="4 4" />
  <path d="M610 250 C580 250, 570 230, 550 230" stroke="#0055FF" stroke-width="2" stroke-dasharray="4 4" />
  
  <!-- Abstract Data Visualization -->
  <rect x="150" cy="450" width="10" height="40" rx="2" fill="#0055FF" />
  <rect x="170" cy="450" width="10" height="60" rx="2" fill="#0055FF" opacity="0.8" />
  <rect x="190" cy="450" width="10" height="30" rx="2" fill="#0055FF" opacity="0.6" />
  <rect x="210" cy="450" width="10" height="50" rx="2" fill="#0055FF" opacity="0.7" />
  <rect x="230" cy="450" width="10" height="20" rx="2" fill="#0055FF" opacity="0.5" />
</svg>
