<svg width="120" height="40" viewBox="0 0 120 40" fill="none" xmlns="http://www.w3.org/2000/svg">
  <path d="M49.9 21.2C49.7 21 49.5 20.9 49.2 20.9C48.9 20.9 48.7 21 48.5 21.2C48.3 21.4 48.2 21.7 48.2 22.1V27.5H45.5V18.5H48.2V19.4C48.6 18.8 49.2 18.4 50.1 18.4C51 18.4 51.7 18.7 52.2 19.3C52.7 19.9 53 20.7 53 21.8V27.5H50.3V22.1C50.3 21.7 50.2 21.4 49.9 21.2Z" fill="#0052CC"/>
  <path d="M60.5 27.5H57.8V26.6C57.4 27.3 56.8 27.6 55.9 27.6C55 27.6 54.3 27.3 53.8 26.7C53.3 26.1 53 25.3 53 24.2V18.5H55.7V23.9C55.7 24.3 55.8 24.6 56.1 24.8C56.3 25 56.5 25.1 56.8 25.1C57.1 25.1 57.3 25 57.5 24.8C57.7 24.6 57.8 24.3 57.8 23.9V18.5H60.5V27.5Z" fill="#0052CC"/>
  <path d="M68.2 18.5V27.5H65.5V26.6C65.1 27.3 64.5 27.6 63.6 27.6C62.7 27.6 62 27.3 61.5 26.7C61 26.1 60.7 25.3 60.7 24.2V18.5H63.4V23.9C63.4 24.3 63.5 24.6 63.8 24.8C64 25 64.2 25.1 64.5 25.1C64.8 25.1 65 25 65.2 24.8C65.4 24.6 65.5 24.3 65.5 23.9V18.5H68.2Z" fill="#0052CC"/>
  <path d="M75.4 20.8H73.5V24.2C73.5 24.5 73.6 24.7 73.7 24.9C73.8 25 74.1 25.1 74.4 25.1C74.7 25.1 75 25.1 75.3 25V27.4C74.8 27.5 74.2 27.6 73.6 27.6C72.7 27.6 72 27.4 71.5 26.9C71 26.4 70.8 25.7 70.8 24.8V20.8H69.5V18.5H70.8V16.4H73.5V18.5H75.4V20.8Z" fill="#0052CC"/>
  <path d="M80.6 27.6C79.4 27.6 78.4 27.2 77.7 26.4C77 25.6 76.6 24.6 76.6 23.3C76.6 22 77 21 77.7 20.2C78.4 19.4 79.4 19 80.6 19C81.8 19 82.8 19.4 83.5 20.2C84.2 21 84.6 22 84.6 23.3C84.6 24.6 84.2 25.6 83.5 26.4C82.8 27.2 81.8 27.6 80.6 27.6ZM80.6 25.1C81 25.1 81.3 24.9 81.6 24.6C81.8 24.3 81.9 23.9 81.9 23.3C81.9 22.7 81.8 22.3 81.6 22C81.4 21.7 81 21.5 80.6 21.5C80.2 21.5 79.9 21.7 79.6 22C79.4 22.3 79.3 22.7 79.3 23.3C79.3 23.9 79.4 24.3 79.6 24.6C79.9 24.9 80.2 25.1 80.6 25.1Z" fill="#0052CC"/>
  <path d="M91.5 19C92.4 19 93.1 19.3 93.6 19.9C94.1 20.5 94.4 21.3 94.4 22.4V27.5H91.7V22.9C91.7 22.5 91.6 22.2 91.3 22C91.1 21.8 90.9 21.7 90.6 21.7C90.3 21.7 90.1 21.8 89.9 22C89.7 22.2 89.6 22.5 89.6 22.9V27.5H86.9V19H89.6V19.9C90 19.3 90.6 19 91.5 19Z" fill="#0052CC"/>
  <path d="M36.7 20C36.7 20 32.9 15.4 31.4 13.5C31.1 13.1 30.7 12.9 30.2 12.9C29.7 12.9 29.3 13.1 29 13.5C27.5 15.4 23.7 20 23.7 20C23.2 20.7 23.1 21.5 23.3 22.3C23.5 23.1 24.1 23.7 24.9 24C25.7 24.3 26.5 24.2 27.3 23.7C28.1 23.2 28.7 22.6 29 21.8C29.3 21 29.2 20.2 28.7 19.5L30.2 17.6L31.7 19.5C31.2 20.2 31.1 21 31.4 21.8C31.7 22.6 32.3 23.2 33.1 23.7C33.9 24.2 34.7 24.3 35.5 24C36.3 23.7 36.9 23.1 37.1 22.3C37.3 21.5 37.2 20.7 36.7 20Z" fill="#0052CC"/>
  <path d="M30.2 27.1C29.7 27.1 29.3 26.9 29 26.5C27.5 24.6 23.7 20 23.7 20C23.2 19.3 23.1 18.5 23.3 17.7C23.5 16.9 24.1 16.3 24.9 16C25.7 15.7 26.5 15.8 27.3 16.3C28.1 16.8 28.7 17.4 29 18.2C29.3 19 29.2 19.8 28.7 20.5L30.2 22.4L31.7 20.5C31.2 19.8 31.1 19 31.4 18.2C31.7 17.4 32.3 16.8 33.1 16.3C33.9 15.8 34.7 15.7 35.5 16C36.3 16.3 36.9 16.9 37.1 17.7C37.3 18.5 37.2 19.3 36.7 20C36.7 20 32.9 24.6 31.4 26.5C31.1 26.9 30.7 27.1 30.2 27.1Z" fill="#2684FF"/>
</svg>
