<svg width="120" height="40" viewBox="0 0 120 40" fill="none" xmlns="http://www.w3.org/2000/svg">
  <path d="M60 10C54.5 10 50 14.5 50 20C50 25.5 54.5 30 60 30C65.5 30 70 25.5 70 20C70 14.5 65.5 10 60 10ZM60 28C55.6 28 52 24.4 52 20C52 15.6 55.6 12 60 12C64.4 12 68 15.6 68 20C68 24.4 64.4 28 60 28Z" fill="#0071CE"/>
  <path d="M82.5 14.5L79.5 25.5H77L74.5 17L72 25.5H69.5L66.5 14.5H69L71 23L73.5 14.5H76L78.5 23L80.5 14.5H82.5Z" fill="#0071CE"/>
  <path d="M89 14.5C91.5 14.5 93.5 16.5 93.5 19C93.5 21.5 91.5 23.5 89 23.5H86.5V25.5H84V14.5H89ZM89 21C90 21 91 20 91 19C91 18 90 17 89 17H86.5V21H89Z" fill="#0071CE"/>
  <path d="M97 25.5H94.5V14.5H97V25.5Z" fill="#0071CE"/>
  <path d="M40 14.5H37.5V25.5H40V14.5Z" fill="#0071CE"/>
  <path d="M47.5 14.5L44.5 25.5H42L39 14.5H41.5L43.5 22.5L45.5 14.5H47.5Z" fill="#0071CE"/>
  <path d="M30.5 14.5V17H27V19H30V21.5H27V25.5H24.5V14.5H30.5Z" fill="#0071CE"/>
</svg>
