<svg width="120" height="40" viewBox="0 0 120 40" fill="none" xmlns="http://www.w3.org/2000/svg">
  <path d="M24.5 10H42.5C43.875 10 45 11.125 45 12.5V27.5C45 28.875 43.875 30 42.5 30H24.5C23.125 30 22 28.875 22 27.5V12.5C22 11.125 23.125 10 24.5 10Z" fill="#2D8CFF"/>
  <path d="M45.5 19.25L36.75 13.25V25.25L45.5 19.25Z" fill="white"/>
  <path d="M54 18.125V21.25H63.5V18.125H54ZM72.5 15H66.625V25H63.5V15H57.625V12.5H72.5V15ZM80 25H76.875V15H73.75V12.5H83.125V15H80V25ZM91.25 25.625C89.75 25.625 88.5 25.125 87.5 24.125C86.5 23.125 86 21.875 86 20.375V12.5H89.125V20.375C89.125 21 89.375 21.5 89.75 21.875C90.125 22.25 90.625 22.5 91.25 22.5C92.5 22.5 93.125 21.75 93.125 20.375V12.5H96.25V20.375C96.25 21.875 95.75 23.125 94.75 24.125C93.75 25.125 92.625 25.625 91.25 25.625Z" fill="#2D8CFF"/>
</svg>
